<?xml version="1.0" standalone="no"?><svg xmlns="http://www.w3.org/2000/svg" viewBox="0 0 1440 320"><path fill="#0099ff" fill-opacity="1" d="M0,64L26.7,90.7C53.3,117,107,171,160,202.7C213.3,235,267,245,320,250.7C373.3,256,427,256,480,250.7C533.3,245,587,235,640,197.3C693.3,160,747,96,800,64C853.3,32,907,32,960,69.3C1013.3,107,1067,181,1120,186.7C1173.3,192,1227,128,1280,96C1333.3,64,1387,64,1413,64L1440,64L1440,320L1413.3,320C1386.7,320,1333,320,1280,320C1226.7,320,1173,320,1120,320C1066.7,320,1013,320,960,320C906.7,320,853,320,800,320C746.7,320,693,320,640,320C586.7,320,533,320,480,320C426.7,320,373,320,320,320C266.7,320,213,320,160,320C106.7,320,53,320,27,320L0,320Z"></path></svg>